<svg width="1440" height="239" viewBox="0 0 1440 239" fill="none" xmlns="http://www.w3.org/2000/svg">
<g clip-path="url(#clip0_7_2)">
<path d="M0 47.8L60 71.7C120 95.6 240 143.4 360 155.35C480 167.3 600 143.4 720 127.443C840 111.768 960 103.332 1080 87.6567C1200 71.7 1320 47.8 1440 51.8067C1560 55.5323 1680 87.8676 1800 111.557C1920 135.668 2040 151.132 2160 159.357C2280 167.3 2400 167.3 2520 175.243C2640 183.468 2760 198.932 2880 191.2C3000 183.468 3120 151.132 3240 143.4C3360 135.668 3480 151.132 3600 167.3C3720 183.468 3840 198.932 3960 191.2C4080 183.468 4200 151.132 4320 151.343C4440 151.132 4560 183.468 4680 195.207C4800 207.368 4920 198.932 5040 167.3C5160 135.668 5280 79.4323 5400 75.7067C5520 71.7 5640 119.5 5760 131.45C5880 143.4 6000 119.5 6120 99.6068C6240 79.4323 6360 63.9676 6480 47.8C6600 31.6323 6720 16.1676 6840 39.8568C6960 63.9676 7080 127.232 7200 131.45C7320 135.668 7440 79.4323 7560 59.75C7680 40.0676 7800 55.5323 7920 79.6432C8040 103.332 8160 135.668 8280 135.457C8400 135.668 8520 103.332 8580 87.6567L8640 71.7V239H8580C8520 239 8400 239 8280 239C8160 239 8040 239 7920 239C7800 239 7680 239 7560 239C7440 239 7320 239 7200 239C7080 239 6960 239 6840 239C6720 239 6600 239 6480 239C6360 239 6240 239 6120 239C6000 239 5880 239 5760 239C5640 239 5520 239 5400 239C5280 239 5160 239 5040 239C4920 239 4800 239 4680 239C4560 239 4440 239 4320 239C4200 239 4080 239 3960 239C3840 239 3720 239 3600 239C3480 239 3360 239 3240 239C3120 239 3000 239 2880 239C2760 239 2640 239 2520 239C2400 239 2280 239 2160 239C2040 239 1920 239 1800 239C1680 239 1560 239 1440 239C1320 239 1200 239 1080 239C960 239 840 239 720 239C600 239 480 239 360 239C240 239 120 239 60 239H0V47.8Z" fill="url(#paint0_linear_7_2)"/>
<path opacity="0.9" d="M0 0L60 19.8932C120 40.0676 240 79.4324 360 79.6432C480 79.4324 600 40.0676 720 27.9068C840 16.1676 960 31.6324 1080 47.8C1200 63.9676 1320 79.4324 1440 95.6C1560 111.768 1680 127.232 1800 123.507C1920 119.5 2040 95.6 2160 71.7C2280 47.8 2400 23.9 2520 35.85C2640 47.8 2760 95.6 2880 111.557C3000 127.232 3120 111.768 3240 119.5C3360 127.232 3480 159.568 3600 179.25C3720 198.932 3840 207.368 3960 179.25C4080 151.132 4200 87.8676 4320 87.6568C4440 87.8676 4560 151.132 4680 155.35C4800 159.568 4920 103.332 5040 95.6C5160 87.8676 5280 127.232 5400 127.443C5520 127.232 5640 87.8676 5760 91.5932C5880 95.6 6000 143.4 6120 139.393C6240 135.668 6360 79.4324 6480 79.6432C6600 79.4324 6720 135.668 6840 131.45C6960 127.232 7080 63.9676 7200 35.85C7320 7.73235 7440 16.1676 7560 31.8432C7680 47.8 7800 71.7 7920 87.6568C8040 103.332 8160 111.768 8280 131.45C8400 151.132 8520 183.468 8580 199.143L8640 215.1V239H8580C8520 239 8400 239 8280 239C8160 239 8040 239 7920 239C7800 239 7680 239 7560 239C7440 239 7320 239 7200 239C7080 239 6960 239 6840 239C6720 239 6600 239 6480 239C6360 239 6240 239 6120 239C6000 239 5880 239 5760 239C5640 239 5520 239 5400 239C5280 239 5160 239 5040 239C4920 239 4800 239 4680 239C4560 239 4440 239 4320 239C4200 239 4080 239 3960 239C3840 239 3720 239 3600 239C3480 239 3360 239 3240 239C3120 239 3000 239 2880 239C2760 239 2640 239 2520 239C2400 239 2280 239 2160 239C2040 239 1920 239 1800 239C1680 239 1560 239 1440 239C1320 239 1200 239 1080 239C960 239 840 239 720 239C600 239 480 239 360 239C240 239 120 239 60 239H0V0Z" fill="url(#paint1_linear_7_2)"/>
</g>
<defs>
<linearGradient id="paint0_linear_7_2" x1="0" y1="239" x2="0" y2="27.6946" gradientUnits="userSpaceOnUse">
<stop/>
<stop offset="1"/>
</linearGradient>
<linearGradient id="paint1_linear_7_2" x1="0" y1="239" x2="0" y2="0" gradientUnits="userSpaceOnUse">
<stop/>
<stop offset="1" stop-color="#1E00FF"/>
</linearGradient>
<clipPath id="clip0_7_2">
<rect width="1440" height="239" fill="white"/>
</clipPath>
</defs>
</svg>
